<svg width="45" height="45" viewBox="0 0 45 45" fill="none" xmlns="http://www.w3.org/2000/svg">
<circle cx="22.5" cy="22.5" r="22.5" fill="#2F89CE"/>
<path d="M10.52 22.9208L15.6929 24.8497L17.7094 31.3377C17.7971 31.776 18.3231 31.8637 18.6738 31.6007L21.5671 29.2335C21.8301 28.9704 22.2685 28.9704 22.6192 29.2335L27.7921 33.0035C28.1428 33.2665 28.6688 33.0912 28.7565 32.6528L32.6142 14.241C32.7019 13.8026 32.2635 13.3642 31.8251 13.5396L10.52 21.7811C9.99398 21.9564 9.99398 22.7455 10.52 22.9208ZM17.4464 23.8853L27.6167 17.6603C27.7921 17.5726 27.9674 17.8357 27.7921 17.9234L19.4629 25.7265C19.1999 25.9895 18.9369 26.3402 18.9369 26.7786L18.6738 28.8828C18.6738 29.1458 18.2355 29.2335 18.1478 28.8828L17.0957 25.025C16.8326 24.5867 17.008 24.0606 17.4464 23.8853Z" fill="white"/>
</svg>
