<svg width="30" height="30" viewBox="0 0 30 30" fill="none" xmlns="http://www.w3.org/2000/svg">
<path d="M14.65 29.29C6.56996 29.29 0 22.72 0 14.65C0 6.57999 6.56996 0 14.65 0C22.73 0 29.29 6.56999 29.29 14.65C29.29 22.73 22.72 29.29 14.65 29.29ZM14.65 2C7.67996 2 2 7.66999 2 14.65C2 21.62 7.66996 27.29 14.65 27.29C21.62 27.29 27.29 21.62 27.29 14.65C27.29 7.66999 21.62 2 14.65 2Z" fill="#4674E1"/>
<path d="M14.3998 11.2601C7.29984 11.2601 2.65984 8.23009 2.58984 8.19009L3.14984 7.36008C3.24984 7.43008 13.2198 13.8901 26.2098 7.33008L26.6599 8.22009C22.1399 10.5001 17.9598 11.2601 14.3998 11.2601Z" fill="#4674E1"/>
<path d="M26.2098 21.8904C13.2098 15.3304 3.24984 21.7904 3.14984 21.8604L2.58984 21.0304C2.68984 20.9604 13.1199 14.1704 26.6599 21.0004L26.2098 21.8904Z" fill="#4674E1"/>
<path d="M14.2896 28.6297C2.23958 15.8797 14.1396 0.829688 14.2596 0.679688L15.0396 1.30969C14.5696 1.89969 3.56962 15.8397 15.0096 27.9397L14.2896 28.6297Z" fill="#4674E1"/>
<path d="M15.01 28.6297L14.28 27.9397C25.73 15.8197 14.37 1.44969 14.25 1.30969L15.03 0.679688C15.16 0.829688 27.06 15.8897 15.01 28.6297Z" fill="#4674E1"/>
</svg>
