<svg width="30" height="30" viewBox="0 0 30 30" fill="none" xmlns="http://www.w3.org/2000/svg">
<g clip-path="url(#clip0_318_61229)">
<path d="M16.2301 23.6978H3.00887C2.16401 23.6978 1.47479 23.0086 1.47479 22.1637V9.23153H23.6856V13.026C23.6856 13.4336 24.0191 13.7671 24.4267 13.7671C24.8343 13.7671 25.1678 13.4336 25.1678 13.026V7.64558C25.1678 5.98551 23.8116 4.6293 22.1515 4.6293H21.0843V2.70985C21.0843 2.30225 20.7508 1.96875 20.3432 1.96875C19.9356 1.96875 19.6021 2.30225 19.6021 2.70985V4.6293H15.9114V2.70985C15.9114 2.30225 15.5779 1.96875 15.1703 1.96875C14.7627 1.96875 14.4292 2.30225 14.4292 2.70985V4.6293H10.7385V2.70985C10.7385 2.30225 10.405 1.96875 9.99744 1.96875C9.58984 1.96875 9.25634 2.30225 9.25634 2.70985V4.6293H5.56566V2.70985C5.56566 2.30225 5.23216 1.96875 4.82456 1.96875C4.41695 1.96875 4.08346 2.30225 4.08346 2.70985V4.6293H3.01628C1.35621 4.6293 0 5.98551 0 7.64558V22.1637C0 23.8238 1.35621 25.18 3.01628 25.18H16.2375C16.6451 25.18 16.9786 24.8465 16.9786 24.4389C16.9786 24.0313 16.6377 23.6978 16.2301 23.6978ZM4.81715 6.86001C4.40955 6.86001 4.07605 6.52652 4.07605 6.11891V5.48897C4.07605 5.08137 4.40955 4.74787 4.81715 4.74787C5.22476 4.74787 5.55825 5.08137 5.55825 5.48897V6.11891C5.55825 6.52652 5.22476 6.86001 4.81715 6.86001ZM9.99003 6.86001C9.58242 6.86001 9.24893 6.52652 9.24893 6.11891V5.48897C9.24893 5.08137 9.58242 4.74787 9.99003 4.74787C10.3976 4.74787 10.7311 5.08137 10.7311 5.48897V6.11891C10.7311 6.52652 10.3976 6.86001 9.99003 6.86001ZM15.1629 6.86001C14.7553 6.86001 14.4218 6.52652 14.4218 6.11891V5.48897C14.4218 5.08137 14.7553 4.74787 15.1629 4.74787C15.5705 4.74787 15.904 5.08137 15.904 5.48897V6.11891C15.904 6.52652 15.5705 6.86001 15.1629 6.86001ZM20.3358 6.86001C19.9282 6.86001 19.5947 6.52652 19.5947 6.11891V5.48897C19.5947 5.08137 19.9282 4.74787 20.3358 4.74787C20.7434 4.74787 21.0769 5.08137 21.0769 5.48897V6.11891C21.0769 6.52652 20.7434 6.86001 20.3358 6.86001Z" fill="#303273"/>
<path d="M5.2769 11.4248C4.63214 11.4248 4.10596 11.951 4.10596 12.5957C4.10596 13.2405 4.63214 13.7667 5.2769 13.7667C5.92165 13.7667 6.44784 13.2405 6.44784 12.5957C6.45525 11.951 5.92907 11.4248 5.2769 11.4248Z" fill="#303273"/>
<path d="M8.93022 11.4248C8.28546 11.4248 7.75928 11.951 7.75928 12.5957C7.75928 13.2405 8.28546 13.7667 8.93022 13.7667C9.57497 13.7667 10.1012 13.2405 10.1012 12.5957C10.1012 11.951 9.57497 11.4248 8.93022 11.4248Z" fill="#303273"/>
<path d="M12.5762 13.7667C13.2229 13.7667 13.7471 13.2424 13.7471 12.5957C13.7471 11.9491 13.2229 11.4248 12.5762 11.4248C11.9295 11.4248 11.4053 11.9491 11.4053 12.5957C11.4053 13.2424 11.9295 13.7667 12.5762 13.7667Z" fill="#303273"/>
<path d="M16.2305 11.4248C15.5857 11.4248 15.0596 11.951 15.0596 12.5957C15.0596 13.2405 15.5857 13.7667 16.2305 13.7667C16.8753 13.7667 17.4014 13.2405 17.4014 12.5957C17.4014 11.951 16.8753 11.4248 16.2305 11.4248Z" fill="#303273"/>
<path d="M18.7056 12.5957C18.7056 13.2405 19.2317 13.7667 19.8765 13.7667C20.5213 13.7667 21.0474 13.2405 21.0474 12.5957C21.0474 11.951 20.5213 11.4248 19.8765 11.4248C19.2317 11.4248 18.7056 11.951 18.7056 12.5957Z" fill="#303273"/>
<path d="M5.2769 15.0859C4.63214 15.0859 4.10596 15.6121 4.10596 16.2569C4.10596 16.9016 4.63214 17.4278 5.2769 17.4278C5.92165 17.4278 6.44784 16.9016 6.44784 16.2569C6.44784 15.6121 5.92907 15.0859 5.2769 15.0859Z" fill="#303273"/>
<path d="M8.93022 15.0859C8.28546 15.0859 7.75928 15.6121 7.75928 16.2569C7.75928 16.9016 8.28546 17.4278 8.93022 17.4278C9.57497 17.4278 10.1012 16.9016 10.1012 16.2569C10.1012 15.6121 9.57497 15.0859 8.93022 15.0859Z" fill="#303273"/>
<path d="M12.5762 17.4356C13.2229 17.4356 13.7471 16.9114 13.7471 16.2647C13.7471 15.618 13.2229 15.0938 12.5762 15.0938C11.9295 15.0938 11.4053 15.618 11.4053 16.2647C11.4053 16.9114 11.9295 17.4356 12.5762 17.4356Z" fill="#303273"/>
<path d="M16.2305 15.0859C15.5857 15.0859 15.0596 15.6121 15.0596 16.2569C15.0596 16.9016 15.5857 17.4278 16.2305 17.4278C16.8753 17.4278 17.4014 16.9016 17.4014 16.2569C17.4014 15.6121 16.8753 15.0859 16.2305 15.0859Z" fill="#303273"/>
<path d="M5.2769 18.7549C4.63214 18.7549 4.10596 19.2811 4.10596 19.9258C4.10596 20.5706 4.63214 21.0968 5.2769 21.0968C5.92165 21.0968 6.44784 20.5706 6.44784 19.9258C6.44784 19.2811 5.92907 18.7549 5.2769 18.7549Z" fill="#303273"/>
<path d="M8.93022 18.7549C8.28546 18.7549 7.75928 19.2811 7.75928 19.9258C7.75928 20.5706 8.28546 21.0968 8.93022 21.0968C9.57497 21.0968 10.1012 20.5706 10.1012 19.9258C10.1012 19.2811 9.57497 18.7549 8.93022 18.7549Z" fill="#303273"/>
<path d="M12.5762 21.0968C13.2229 21.0968 13.7471 20.5725 13.7471 19.9258C13.7471 19.2791 13.2229 18.7549 12.5762 18.7549C11.9295 18.7549 11.4053 19.2791 11.4053 19.9258C11.4053 20.5725 11.9295 21.0968 12.5762 21.0968Z" fill="#303273"/>
<path d="M23.9821 15.5234C20.662 15.5234 17.9644 18.221 17.9644 21.5412C17.9644 24.8613 20.6694 27.5589 23.9821 27.5589C27.2948 27.5589 29.9998 24.8613 29.9998 21.5412C29.9998 18.221 27.3022 15.5234 23.9821 15.5234ZM23.9821 26.0841C21.4772 26.0841 19.4466 24.0461 19.4466 21.5486C19.4466 19.0511 21.4846 17.0131 23.9821 17.0131C26.4796 17.0131 28.5176 19.0511 28.5176 21.5486C28.5176 24.0461 26.487 26.0841 23.9821 26.0841Z" fill="#303273"/>
<path d="M27.3183 20.0215C27.0293 19.7324 26.5624 19.7324 26.2733 20.0215L24.013 22.2818L22.5085 20.7774C22.2195 20.4884 21.7526 20.4884 21.4636 20.7774C21.1746 21.0664 21.1746 21.5333 21.4636 21.8223L23.4942 23.853C23.6424 24.0012 23.8277 24.0679 24.0204 24.0679C24.2131 24.0679 24.3984 23.9938 24.5466 23.853L27.3257 21.0738C27.6073 20.7774 27.6073 20.3105 27.3183 20.0215Z" fill="#303273"/>
</g>
<defs>
<clipPath id="clip0_318_61229">
<rect width="30" height="30" fill="white"/>
</clipPath>
</defs>
</svg>
