<svg width="27" height="29" viewBox="0 0 27 29" fill="none" xmlns="http://www.w3.org/2000/svg">
<path d="M14.0352 28.7306C8.70524 28.7306 4.47527 26.6006 2.06527 22.6706C1.89527 22.4306 -2.51476 15.7606 2.09524 8.24061C4.57524 4.20061 8.29525 1.77061 12.0453 1.74061C14.1253 1.72061 15.8253 2.4906 16.6453 3.7906C18.0353 6.0006 17.4952 8.3706 17.0952 10.1006C16.9452 10.7606 16.8053 11.3806 16.8053 11.8206C16.8053 12.2806 16.9253 12.6106 17.1853 12.8606C17.6553 13.3206 18.6253 13.6006 19.9453 13.5506C20.4753 13.5506 20.9653 13.5906 21.4353 13.6906L21.0253 15.6506C20.6953 15.5806 20.3453 15.5606 19.9653 15.5506C18.0653 15.5806 16.6553 15.1506 15.7753 14.2806C15.1353 13.6506 14.8053 12.8006 14.8053 11.8106C14.8053 11.1406 14.9753 10.4106 15.1453 9.64064C15.5153 8.02064 15.9053 6.3506 14.9553 4.8506C14.5253 4.1606 13.3553 3.72061 12.0653 3.74061C10.9153 3.75061 6.93526 4.17059 3.80526 9.28059C-0.114737 15.6806 3.59527 21.3406 3.75528 21.5806C5.94528 25.1406 9.9153 26.9606 14.9653 26.7006C17.4353 26.5806 19.8453 25.5806 21.5753 23.9806L22.9353 25.4406C20.8753 27.3706 18.0053 28.5506 15.0653 28.7006C14.7053 28.7206 14.3652 28.7306 14.0352 28.7306Z" fill="#4674E1"/>
<path d="M10.6558 10.5908C11.7935 10.5908 12.7158 9.66841 12.7158 8.5307C12.7158 7.39299 11.7935 6.4707 10.6558 6.4707C9.51806 6.4707 8.5957 7.39299 8.5957 8.5307C8.5957 9.66841 9.51806 10.5908 10.6558 10.5908Z" fill="#4674E1"/>
<path d="M7.06488 16.7108C8.20259 16.7108 9.12488 15.7885 9.12488 14.6508C9.12488 13.5131 8.20259 12.5908 7.06488 12.5908C5.92717 12.5908 5.00488 13.5131 5.00488 14.6508C5.00488 15.7885 5.92717 16.7108 7.06488 16.7108Z" fill="#4674E1"/>
<path d="M10.3051 22.6708C11.4428 22.6708 12.3651 21.7485 12.3651 20.6108C12.3651 19.4731 11.4428 18.5508 10.3051 18.5508C9.16741 18.5508 8.24512 19.4731 8.24512 20.6108C8.24512 21.7485 9.16741 22.6708 10.3051 22.6708Z" fill="#4674E1"/>
<path d="M17.1254 23.5908C18.2631 23.5908 19.1854 22.6684 19.1854 21.5307C19.1854 20.393 18.2631 19.4707 17.1254 19.4707C15.9877 19.4707 15.0654 20.393 15.0654 21.5307C15.0654 22.6684 15.9877 23.5908 17.1254 23.5908Z" fill="#4674E1"/>
<path d="M23.2353 28.2601H23.2253C22.8053 28.2601 22.4353 27.99 22.2953 27.6C22.1553 27.21 18.8653 17.9501 21.0953 9.57007C21.2153 9.13007 21.6053 8.83008 22.0653 8.83008H24.4153C24.8853 8.83008 25.2953 9.16006 25.3953 9.62006C25.4753 10.0101 27.4253 19.2301 24.1753 27.6301C24.0253 28.0101 23.6553 28.2601 23.2353 28.2601ZM22.8453 10.8301C21.8053 15.5301 22.5453 20.5501 23.2753 23.7101C24.5453 18.2101 23.8953 12.8101 23.5753 10.8301H22.8453Z" fill="#4674E1"/>
<path d="M23.2355 1.76953C23.2355 1.76953 21.4155 4.3595 21.2355 6.3595C21.0555 8.3595 22.0556 9.82953 22.0556 9.82953H24.4056C24.4056 9.82953 25.1756 8.1195 25.0256 6.1795C24.8756 4.2395 23.2355 1.76953 23.2355 1.76953Z" fill="#4674E1"/>
<path d="M25.0653 10.83H21.5353L21.2353 10.39C21.1853 10.32 20.0353 8.60002 20.2453 6.27002C20.4353 4.07002 22.2253 1.48 22.4253 1.19L23.2653 0L24.0753 1.21002C24.1453 1.32002 25.8653 3.91998 26.0353 6.09998C26.2053 8.26998 25.3653 10.16 25.3253 10.24L25.0653 10.83ZM22.6653 8.83002H23.7153C23.8953 8.24002 24.1153 7.28001 24.0353 6.26001C23.9753 5.49001 23.5953 4.53999 23.2053 3.73999C22.7553 4.58999 22.3053 5.62 22.2253 6.44C22.1453 7.47 22.4353 8.33002 22.6653 8.83002Z" fill="#4674E1"/>
</svg>
