<svg width="33" height="28" viewBox="0 0 33 28" fill="none" xmlns="http://www.w3.org/2000/svg">
<path d="M7.33984 11.3855H10.5298V12.7755H7.33984V14.2355H10.8099V15.8755H5.33984V8.39551H10.7399V10.0355H7.33984V11.3855Z" fill="#4674E1"/>
<path d="M15.4501 8.38477L17.6701 14.1448L17.6801 14.1348L17.5601 8.38477H19.5601V15.8648H16.1601L13.9701 10.0948L13.9601 10.1148L14.0801 15.8648H12.0801V8.38477H15.4501Z" fill="#4674E1"/>
<path d="M25.4493 10.6954C25.4493 10.0654 24.7594 9.94543 24.1594 9.94543C22.7194 9.94543 22.6594 10.3954 22.6594 11.6054V12.8254C22.6594 14.1554 23.1194 14.3354 24.1594 14.3354C25.1794 14.3354 25.4493 14.1054 25.4493 13.0654H24.0694V11.6754H27.4694V12.9854C27.4694 15.5054 26.8294 15.9654 24.1594 15.9654C21.8094 15.9654 20.6094 15.5254 20.6094 13.1054V11.1654C20.6094 8.68541 21.9694 8.31543 24.1594 8.31543C26.0994 8.31543 27.4694 8.66543 27.4694 10.6954H25.4493Z" fill="#4674E1"/>
<path d="M10.7 27.4654C10.49 27.4654 10.27 27.3954 10.09 27.2654C9.76997 27.0154 9.61998 26.5954 9.72998 26.2054L10.7599 22.4354C4.27995 20.8254 0 16.6554 0 11.8154C0 5.5854 7.33998 0.525391 16.35 0.525391C25.37 0.525391 32.7 5.5954 32.7 11.8154C32.7 17.4954 26.6 22.2854 18.48 23.0054L11.2 27.3154C11.06 27.4154 10.88 27.4654 10.7 27.4654ZM16.36 2.51538C8.44999 2.51538 2.00995 6.68539 2.00995 11.8054C2.00995 15.8454 6.19995 19.5054 12.2 20.6954C12.47 20.7454 12.71 20.9154 12.86 21.1454C13.01 21.3854 13.05 21.6654 12.97 21.9354L12.32 24.3354L17.67 21.1654C17.8 21.0854 17.95 21.0454 18.1 21.0254C25.29 20.4554 30.71 16.4954 30.71 11.8054C30.71 6.68539 24.27 2.51538 16.36 2.51538Z" fill="#4674E1"/>
</svg>
