<svg width="22" height="26" viewBox="0 0 22 26" fill="none" xmlns="http://www.w3.org/2000/svg">
<g clip-path="url(#clip0_318_61223)">
<path d="M18.9126 2.42048H16.4533V0.761158C16.4533 0.342521 16.1169 0 15.7057 0C15.2946 0 14.9582 0.342521 14.9582 0.761158V2.42048H7.04178V0.761158C7.04178 0.342521 6.70539 0 6.29425 0C5.8831 0 5.54671 0.342521 5.54671 0.761158V2.42048H3.08732C1.38294 2.42048 0 3.82862 0 5.56406V22.241C0 23.9765 1.38294 25.3846 3.08732 25.3846H18.9126C20.617 25.3846 22 23.9765 22 22.241V5.57168C22.0074 3.83624 20.617 2.42048 18.9126 2.42048ZM3.08732 3.9428H5.54671V5.24438C5.54671 5.66301 5.8831 6.00554 6.29425 6.00554C6.70539 6.00554 7.04178 5.66301 7.04178 5.24438V3.9428H14.9582V5.24438C14.9582 5.66301 15.2946 6.00554 15.7057 6.00554C16.1169 6.00554 16.4533 5.66301 16.4533 5.24438V3.9428H18.9126C19.7947 3.9428 20.5049 4.67351 20.5049 5.56406V8.06066H1.4876V5.56406C1.49507 4.67351 2.21271 3.9428 3.08732 3.9428ZM18.9126 23.8699H3.08732C2.20523 23.8699 1.49507 23.1392 1.49507 22.2486V9.59059H20.5124V22.2486C20.5124 23.1392 19.7947 23.8699 18.9126 23.8699Z" fill="#303273"/>
<path d="M12.671 14.5451L11.004 11.1123L9.33698 14.5451L5.61426 15.0932L8.31286 17.7648L7.67745 21.5402L11.004 19.7591L14.3305 21.5402L13.6951 17.7648L16.3862 15.0932L12.671 14.5451Z" fill="#303273"/>
</g>
<defs>
<clipPath id="clip0_318_61223">
<rect width="22" height="25.3846" fill="white"/>
</clipPath>
</defs>
</svg>
