<svg width="30" height="30" viewBox="0 0 30 30" fill="none" xmlns="http://www.w3.org/2000/svg">
<path d="M20.8072 19.5775C20.3984 19.5775 20.064 19.912 20.064 20.3207V23.9031C20.064 24.743 19.3802 25.4342 18.5329 25.4342H4.01753C3.17025 25.4342 2.48647 24.7504 2.48647 23.9031V5.01753C2.48647 4.17768 3.17025 3.48647 4.01753 3.48647H18.5329C19.3802 3.48647 20.064 4.17024 20.064 5.01753V5.71617C20.064 6.12495 20.3984 6.45941 20.8072 6.45941C21.216 6.45941 21.5504 6.12495 21.5504 5.71617V5.01753C21.5504 3.35269 20.1978 2 18.5329 2H4.01753C2.35269 2 1 3.35269 1 5.01753V23.9031C1 25.568 2.35269 26.9207 4.01753 26.9207H18.5329C20.1978 26.9207 21.5504 25.568 21.5504 23.9031V20.3207C21.5504 19.9045 21.216 19.5775 20.8072 19.5775Z" fill="#303273"/>
<path d="M16.4454 9.30573C16.4454 8.89696 16.111 8.5625 15.7022 8.5625H9.10969C8.70091 8.5625 8.36646 8.89696 8.36646 9.30573C8.36646 9.71451 8.70091 10.049 9.10969 10.049H15.7022C16.1184 10.049 16.4454 9.71451 16.4454 9.30573Z" fill="#303273"/>
<path d="M5.85291 8.13965C5.21373 8.13965 4.68604 8.65991 4.68604 9.30653C4.68604 9.94571 5.2063 10.4734 5.85291 10.4734C6.49953 10.4734 7.01979 9.95314 7.01979 9.30653C7.01236 8.65991 6.4921 8.13965 5.85291 8.13965Z" fill="#303273"/>
<path d="M14.8095 14.5831C14.8095 14.1743 14.475 13.8398 14.0662 13.8398H9.11628C8.7075 13.8398 8.37305 14.1743 8.37305 14.5831C8.37305 14.9919 8.7075 15.3263 9.11628 15.3263H14.0662C14.475 15.3263 14.8095 14.9919 14.8095 14.5831Z" fill="#303273"/>
<path d="M5.85291 13.416C5.21373 13.416 4.68604 13.9363 4.68604 14.5829C4.68604 15.2221 5.2063 15.7498 5.85291 15.7498C6.49953 15.7498 7.01979 15.2295 7.01979 14.5829C7.01236 13.9437 6.4921 13.416 5.85291 13.416Z" fill="#303273"/>
<path d="M9.11628 19.1162C8.7075 19.1162 8.37305 19.4507 8.37305 19.8594C8.37305 20.2682 8.7075 20.6027 9.11628 20.6027H12.0669C12.4757 20.6027 12.8102 20.2682 12.8102 19.8594C12.8102 19.4507 12.4757 19.1162 12.0669 19.1162H9.11628Z" fill="#303273"/>
<path d="M5.85291 21.0261C6.49736 21.0261 7.01979 20.5037 7.01979 19.8593C7.01979 19.2148 6.49736 18.6924 5.85291 18.6924C5.20847 18.6924 4.68604 19.2148 4.68604 19.8593C4.68604 20.5037 5.20847 21.0261 5.85291 21.0261Z" fill="#303273"/>
<path d="M25.6525 8.13144L23.1923 6.52605C22.8579 6.31052 22.4119 6.39227 22.1815 6.71929L15.0985 16.6861C15.0465 16.7604 15.0093 16.8347 14.987 16.9239L13.7384 21.4799C13.6566 21.7847 13.7756 22.1043 14.0357 22.2901C14.162 22.3793 14.3107 22.4238 14.4593 22.4238C14.6154 22.4238 14.7641 22.3793 14.8978 22.2826L18.7032 19.5252C18.7701 19.4732 18.8296 19.4137 18.8816 19.3469L25.868 9.1794C25.9795 9.01589 26.0241 8.80778 25.9869 8.61454C25.9349 8.41387 25.8234 8.24292 25.6525 8.13144ZM17.8113 18.2617L16.4884 17.2881L22.9768 8.16117L24.2031 8.96386L17.8113 18.2617Z" fill="#303273"/>
</svg>
