<svg width="30" height="28" viewBox="0 0 30 28" fill="none" xmlns="http://www.w3.org/2000/svg">
<path d="M19.1582 24.0934C18.6082 24.0934 18.0982 23.9634 17.6382 23.7034C16.3382 22.9534 15.7582 21.2734 15.9782 18.9534C16.1882 16.8634 17.0382 14.4334 18.3682 12.1234C21.3282 6.99342 25.4882 4.22342 28.0282 5.69342C30.5682 7.16342 30.2582 12.1434 27.2882 17.2734C24.8682 21.4834 21.6482 24.0934 19.1582 24.0934ZM26.5082 6.92342C24.8382 6.92342 22.0082 9.08342 19.7782 12.9334C18.5582 15.0534 17.7782 17.2434 17.5982 19.1134C17.4382 20.7334 17.7482 21.8934 18.4482 22.2934C19.8982 23.1334 23.3082 20.9334 25.8882 16.4634C28.4682 11.9834 28.6682 7.93342 27.2182 7.10342C27.0182 6.98342 26.7782 6.92342 26.5082 6.92342Z" fill="#4674E1"/>
<path d="M15.8782 27.5238C15.7482 27.5238 15.6182 27.4938 15.4982 27.4238C15.1282 27.2138 15.0082 26.7438 15.2182 26.3738L26.9782 6.01382C27.1882 5.64382 27.6582 5.52383 28.0282 5.73383C28.3982 5.94383 28.5182 6.41382 28.3082 6.78382L16.5482 27.1438C16.3982 27.3938 16.1382 27.5238 15.8782 27.5238Z" fill="#4674E1"/>
<path d="M19.4449 12.4326L18.7012 12.6318L20.285 18.5431L21.0288 18.3439L19.4449 12.4326Z" fill="#4674E1"/>
<path d="M28.3405 12.2344L23.1445 13.6289L23.3441 14.3726L28.5401 12.9781L28.3405 12.2344Z" fill="#4674E1"/>
<path d="M2.23866 18.6331C1.75866 18.6331 1.53865 18.5531 1.36865 18.3631C1.14865 18.1131 1.20865 17.8231 1.22865 17.7131C1.24865 17.6031 1.29866 17.3431 1.34866 17.0931C0.378657 17.0331 0.218656 16.8331 0.128656 16.7231C0.0286558 16.6031 -0.0213545 16.3931 0.00864546 16.2331C0.0586455 16.0031 0.188648 15.8231 1.69865 14.0431C2.23865 13.4031 2.80865 12.7431 2.97865 12.5031C3.23865 12.1431 3.35865 11.7131 3.50865 11.1631C3.56865 10.9431 3.62866 10.7131 3.70866 10.4631C3.99866 9.53309 4.93865 7.80309 4.97865 7.72309C5.55865 6.32309 6.44866 5.42309 6.48866 5.38309C6.69866 5.17309 7.03865 5.17309 7.24865 5.38309C7.45865 5.59309 7.45865 5.93309 7.24865 6.14309C7.23865 6.15309 6.45865 6.94309 5.94865 8.19309C5.91865 8.26309 4.99866 9.95309 4.73866 10.7931C4.66866 11.0231 4.59865 11.2431 4.54865 11.4531C4.38865 12.0431 4.22865 12.6031 3.86865 13.1231C3.66865 13.4031 3.14864 14.0231 2.53864 14.7431C2.20864 15.1331 1.76865 15.6531 1.44865 16.0331C1.62865 16.0431 1.82866 16.0531 2.01866 16.0531C2.17866 16.0531 2.32864 16.1231 2.42864 16.2531C2.52864 16.3731 2.56864 16.5331 2.53864 16.6931C2.53864 16.6931 2.43865 17.1931 2.36865 17.5631C2.55865 17.5531 2.83865 17.5431 3.27865 17.4931C3.56865 17.4631 3.83865 17.6731 3.86865 17.9731C3.89865 18.2731 3.68865 18.5331 3.38865 18.5631C2.87865 18.6131 2.51866 18.6331 2.23866 18.6331Z" fill="#4674E1"/>
<path d="M9.80848 24.873C9.65848 24.873 9.50848 24.813 9.40848 24.693L7.85848 22.933C7.46848 22.783 6.62848 22.503 6.04848 22.503C5.83848 22.503 5.56847 22.523 5.25847 22.553C4.00847 22.663 2.58849 22.783 2.09849 21.963C1.70849 21.303 1.83848 20.413 1.94848 19.923C1.65848 19.633 1.25849 19.123 1.23849 18.583C1.21849 18.263 1.33848 17.973 1.55848 17.733C1.76848 17.523 2.10849 17.523 2.31849 17.723C2.52849 17.933 2.52848 18.273 2.32848 18.483C2.30848 18.503 2.30848 18.503 2.30848 18.523C2.31848 18.733 2.65847 19.133 2.89847 19.333C3.06847 19.473 3.13848 19.713 3.05848 19.923C2.94848 20.253 2.78847 21.043 3.00847 21.413C3.21847 21.653 4.62848 21.533 5.15848 21.493C5.49848 21.463 5.80847 21.443 6.03847 21.443C7.02847 21.443 8.31848 21.983 8.36848 22.003C8.43848 22.033 8.50848 22.083 8.55848 22.143L10.1885 24.003C10.3785 24.223 10.3585 24.563 10.1385 24.753C10.0585 24.823 9.92848 24.873 9.80848 24.873Z" fill="#4674E1"/>
<path d="M14.8586 15.2035C14.7086 15.2035 14.5486 15.1935 14.3886 15.1635C13.6886 15.0435 13.0786 14.6535 12.6986 14.1035C12.3286 13.5535 12.1986 12.8335 12.3486 12.1435C12.4586 11.6535 12.6886 11.2135 13.0186 10.8735C12.9786 10.3635 13.0986 9.8335 13.3586 9.3835C13.2186 9.2835 13.0786 9.1635 12.9486 9.0235C12.8086 8.8735 12.6886 8.7035 12.5886 8.5335C11.8586 8.8235 11.0186 8.9135 10.2586 8.6035C9.72859 8.3835 9.2786 8.03351 8.9586 7.58351C8.9486 7.57351 8.9286 7.53351 8.8886 7.47351C7.5186 7.35351 6.32859 6.6135 5.78859 5.4935C5.25859 4.3735 5.48859 3.1035 6.41859 2.0035C7.17859 1.1135 8.47859 0.463504 9.64859 0.393504C10.2386 0.353504 10.7786 0.463501 11.2386 0.703501C12.1886 0.123501 13.3486 -0.116493 14.4586 0.0535075C15.7186 0.253507 16.7686 0.963508 17.4886 2.09351C18.6086 1.94351 19.7086 2.1535 20.5786 2.7135C21.5786 3.3435 22.1886 4.64351 22.0686 5.8635C22.0286 6.3135 21.6286 6.64351 21.1786 6.59351C20.7286 6.55351 20.4086 6.1535 20.4486 5.7035C20.5086 5.0935 20.1886 4.39351 19.7086 4.08351C19.0586 3.67351 18.1486 3.56351 17.2686 3.79351C16.8986 3.89351 16.5086 3.71351 16.3386 3.36351C16.0086 2.69351 15.3686 1.84351 14.2086 1.66351C13.3486 1.52351 12.4386 1.7735 11.7686 2.3235C11.4586 2.5735 11.0086 2.56351 10.7086 2.29351C10.4786 2.08351 10.1486 1.98351 9.75859 2.01351C8.92859 2.06351 8.0586 2.59351 7.6586 3.05351C7.2986 3.47351 6.93859 4.1135 7.25859 4.7835C7.57859 5.4435 8.4386 5.8535 9.3586 5.8535C9.8786 5.8535 10.0586 6.21351 10.2386 6.55351L10.3186 6.7035C10.4186 6.8435 10.6086 6.99351 10.8586 7.09351C11.4086 7.31351 12.1686 7.0335 12.6386 6.6335C12.9086 6.4035 13.2886 6.3835 13.5886 6.5635C13.8886 6.7535 14.0286 7.1135 13.9486 7.4535C13.9186 7.5735 13.9986 7.76351 14.1286 7.91351C14.3386 8.13351 14.6686 8.29351 14.9586 8.41351C15.2486 8.53351 15.4386 8.8035 15.4586 9.11351C15.4786 9.42351 15.3286 9.71351 15.0586 9.87351C14.7186 10.0735 14.5386 10.5635 14.6686 10.9335C14.7886 11.2935 14.6486 11.6935 14.3286 11.8935C14.1386 12.0135 13.9886 12.2335 13.9386 12.4935C13.8886 12.7535 13.9186 13.0135 14.0486 13.2035C14.1786 13.3935 14.3986 13.5235 14.6686 13.5735C14.9386 13.6235 15.1886 13.5735 15.3786 13.4335C15.7386 13.1635 16.2486 13.2435 16.5186 13.6035C16.7886 13.9635 16.7086 14.4735 16.3486 14.7435C15.9286 15.0435 15.3986 15.2035 14.8586 15.2035Z" fill="#4674E1"/>
<path d="M8.26898 13.2639C8.14898 13.2639 8.01898 13.2239 7.91898 13.1339C7.51898 12.7839 7.14897 12.4639 6.72897 12.2139C6.29897 11.9539 5.87898 11.8239 5.49898 11.8239H5.48898C5.19898 11.8239 4.95898 11.5839 4.95898 11.2939C4.95898 10.9939 5.19898 10.7539 5.48898 10.7539C5.48898 10.7539 5.48898 10.7539 5.49898 10.7539C6.07898 10.7539 6.67898 10.9339 7.27898 11.2939C7.77898 11.5939 8.20897 11.9639 8.61897 12.3239C8.83897 12.5139 8.86898 12.8539 8.66898 13.0839C8.55898 13.2039 8.40898 13.2639 8.26898 13.2639Z" fill="#4674E1"/>
<path d="M6.4188 13.3935C6.1088 13.3935 5.7988 13.3735 5.4688 13.3335C5.1788 13.2935 4.9688 13.0235 5.0088 12.7335C5.0488 12.4435 5.3188 12.2335 5.6088 12.2735C6.4688 12.3835 7.1688 12.3335 8.0388 12.0935C8.3288 12.0235 8.6188 12.1835 8.6988 12.4735C8.7788 12.7635 8.60881 13.0535 8.31881 13.1335C7.64881 13.3035 7.0488 13.3935 6.4188 13.3935Z" fill="#4674E1"/>
<path d="M6.42897 20.8037C6.17897 20.8037 5.95898 20.6337 5.90898 20.3837C5.84898 20.0937 6.02898 19.8137 6.31898 19.7437C8.97898 19.1637 11.559 16.7637 12.069 14.3737C12.129 14.0837 12.419 13.9037 12.709 13.9637C12.999 14.0237 13.179 14.3137 13.119 14.6037C12.449 17.7237 9.24898 20.2037 6.54898 20.7837C6.49898 20.8037 6.45897 20.8037 6.42897 20.8037Z" fill="#4674E1"/>
<path d="M9.72848 16.5336C9.27848 16.5336 8.83849 16.4936 8.45849 16.4236C8.16849 16.3736 7.97849 16.0936 8.02849 15.8036C8.07849 15.5136 8.35848 15.3136 8.64848 15.3736C9.59848 15.5436 11.0385 15.5236 11.9985 14.9236C12.2485 14.7636 12.5785 14.8436 12.7385 15.0936C12.8985 15.3436 12.8185 15.6736 12.5685 15.8336C11.7485 16.3436 10.6985 16.5336 9.72848 16.5336Z" fill="#4674E1"/>
<path d="M8.88819 18.5435C8.39819 18.5435 7.91819 18.4535 7.53819 18.2835C7.26819 18.1635 7.1482 17.8435 7.2682 17.5735C7.3882 17.3035 7.70819 17.1835 7.97819 17.3035C8.80819 17.6735 10.4082 17.4035 10.9082 16.6235C11.0082 16.4735 11.0982 16.3835 11.1782 16.3135C11.2282 16.2635 11.2382 16.2535 11.2582 16.2235C11.2882 16.1635 11.2882 16.1635 11.3082 16.1035C11.3182 16.0535 11.3282 15.9935 11.3582 15.9035C11.4382 15.6235 11.7382 15.4535 12.0182 15.5335C12.2982 15.6135 12.4682 15.9135 12.3882 16.1935L12.3582 16.3135C12.3282 16.4335 12.3082 16.5335 12.2082 16.7235C12.1082 16.9135 11.9882 17.0135 11.9182 17.0835C11.8682 17.1235 11.8482 17.1435 11.8282 17.1835C11.2382 18.1035 10.0082 18.5435 8.88819 18.5435Z" fill="#4674E1"/>
</svg>
