<svg width="25" height="24" viewBox="0 0 25 24" fill="none" xmlns="http://www.w3.org/2000/svg">
<path d="M12.4502 23.875C12.3002 23.875 12.1502 23.845 12.0202 23.775C7.2902 21.495 1.53021 22.7749 1.47021 22.7949C1.17021 22.8649 0.860239 22.7949 0.620239 22.6049C0.380239 22.4149 0.240234 22.1249 0.240234 21.8249V1.85495C0.240234 1.43495 0.510217 1.05494 0.910217 0.914943C8.14022 -1.61506 12.8602 1.97497 13.0602 2.12497C13.3002 2.31497 13.4402 2.60494 13.4402 2.91494V22.8849C13.4402 23.2249 13.2602 23.545 12.9702 23.735C12.8202 23.825 12.6402 23.875 12.4502 23.875ZM5.37024 20.405C7.17024 20.405 9.3302 20.625 11.4502 21.375V3.43496C10.3602 2.76496 7.02023 1.14495 2.24023 2.57495V20.625C3.02023 20.515 4.10024 20.405 5.37024 20.405Z" fill="#4674E1"/>
<path d="M12.4502 23.8746C12.2602 23.8746 12.0802 23.8246 11.9202 23.7246C11.6302 23.5446 11.4502 23.2246 11.4502 22.8746V2.90457C11.4502 2.59457 11.5902 2.30456 11.8302 2.11456C12.0302 1.96456 16.7502 -1.63543 23.9802 0.904567C24.3802 1.04457 24.6502 1.42457 24.6502 1.84457V21.8146C24.6502 22.1146 24.5102 22.4046 24.2702 22.5946C24.0302 22.7846 23.7202 22.8546 23.4202 22.7846C23.3602 22.7746 17.6002 21.4846 12.8702 23.7646C12.7502 23.8346 12.6002 23.8746 12.4502 23.8746ZM13.4502 3.43457V21.3746C17.0602 20.0946 20.7802 20.3546 22.6602 20.6246V2.57455C17.8802 1.13455 14.5502 2.76457 13.4502 3.43457Z" fill="#4674E1"/>
<path d="M9.6203 7.40431C7.2403 6.15431 4.18026 7.1643 4.14026 7.1743L3.82031 6.22432C3.96031 6.17432 7.32026 5.06431 10.0803 6.52431L9.6203 7.40431Z" fill="#4674E1"/>
<path d="M9.62012 12.0643C7.24012 10.8143 4.17008 11.7843 4.14008 11.7943L3.83008 10.8443C3.97008 10.7943 7.33008 9.73433 10.0801 11.1843L9.62012 12.0643Z" fill="#4674E1"/>
<path d="M15.7305 7.40497L15.2705 6.52496C18.0305 5.07496 21.3905 6.18498 21.5305 6.22498L21.2105 7.17496C21.1705 7.15496 18.1005 6.15497 15.7305 7.40497Z" fill="#4674E1"/>
<path d="M15.7305 12.0644L15.2705 11.1844C18.0305 9.73436 21.3805 10.8044 21.5305 10.8444L21.2205 11.7943C21.1805 11.7843 18.1105 10.8144 15.7305 12.0644Z" fill="#4674E1"/>
<path d="M9.6203 16.7246C7.2403 15.4746 4.18026 16.4846 4.14026 16.4946L3.82031 15.5446C3.96031 15.4946 7.32026 14.3846 10.0803 15.8446L9.6203 16.7246Z" fill="#4674E1"/>
<path d="M15.7305 16.7253L15.2705 15.8453C18.0305 14.3953 21.3905 15.5053 21.5305 15.5453L21.2105 16.4953C21.1705 16.4753 18.1005 15.4753 15.7305 16.7253Z" fill="#4674E1"/>
</svg>
