<svg width="24" height="23" viewBox="0 0 24 23" fill="none" xmlns="http://www.w3.org/2000/svg">
<path d="M16.29 0H0V7.13H16.29V0Z" fill="#4674E1"/>
<path d="M16.3496 0H14.3496V16.25H16.3496V0Z" fill="#4674E1"/>
<path d="M18.6996 20.5906C21.1021 20.5906 23.0496 18.643 23.0496 16.2406C23.0496 13.8382 21.1021 11.8906 18.6996 11.8906C16.2972 11.8906 14.3496 13.8382 14.3496 16.2406C14.3496 18.643 16.2972 20.5906 18.6996 20.5906Z" fill="#4674E1"/>
<path d="M2 0H0V18.16H2V0Z" fill="#4674E1"/>
<path d="M4.34998 22.4998C6.75241 22.4998 8.70001 20.5522 8.70001 18.1498C8.70001 15.7473 6.75241 13.7998 4.34998 13.7998C1.94754 13.7998 0 15.7473 0 18.1498C0 20.5522 1.94754 22.4998 4.34998 22.4998Z" fill="#4674E1"/>
</svg>
