<svg width="32" height="28" viewBox="0 0 32 28" fill="none" xmlns="http://www.w3.org/2000/svg">
<path d="M16.38 14.0724L17.86 16.0724C15.57 17.7824 13.78 18.6424 12.5 18.6424C11.92 18.6424 11.43 18.4824 11.02 18.1724C10.39 17.6824 10.09 16.8824 10.11 15.7724C10.11 14.9124 10.12 13.9524 10.13 12.8824C9.67 13.0424 9.21 13.1324 8.75 13.1324C8.58 13.1324 8.42001 13.1224 8.26001 13.1124C8.01001 13.0824 7.75999 13.0224 7.48999 12.9424L7.32001 14.5724C7.16001 15.8224 6.62002 16.8324 5.71002 17.5924V17.6124C4.92002 18.2924 4.13999 18.6224 3.35999 18.6224C3.09999 18.6224 2.85 18.5824 2.62 18.5024C2.11 18.3524 1.63 18.0024 1.19 17.4424C0.430002 16.4424 0.04 15.2124 0 13.7624L2.5 13.7124C2.52 14.6224 2.73998 15.3524 3.16998 15.9124C3.24998 16.0124 3.32 16.0824 3.37 16.1324C3.53 16.1124 3.77003 15.9724 4.09003 15.7124L4.10999 15.6924C4.51999 15.3424 4.76998 14.8724 4.84998 14.2624L5.09998 12.0924C4.65998 12.0424 4.19999 12.0724 3.73999 12.1624L3.16998 9.74239C3.88998 9.58239 4.62003 9.5324 5.34003 9.5924L5.78003 5.54238C5.86003 4.75238 6.11003 3.95238 6.53003 3.14238C6.95003 2.33238 7.50997 1.66239 8.21997 1.11239C8.49997 0.902386 8.79998 0.712377 9.10999 0.572377C9.15999 0.542377 9.23002 0.502401 9.33002 0.472401C10.8 -0.187599 12.43 -0.157623 14.25 0.572377C14.51 0.692377 14.78 0.812403 15.04 0.942403L13.85 3.14238C13.54 2.98238 13.22 2.84239 12.89 2.74239C11.93 2.43239 11.1 2.4224 10.39 2.7224L10.37 2.74239C9.52999 3.10239 8.91002 3.78239 8.52002 4.77239C8.37002 5.13239 8.28 5.4724 8.25 5.7824L7.78003 10.3524C8.13003 10.5324 8.39001 10.6324 8.57001 10.6524C9.05001 10.7224 9.59001 10.5224 10.2 10.0624C10.23 8.3024 10.28 6.53239 10.35 4.77239H12.85C12.7 9.42239 12.62 13.1024 12.6 15.8224C12.58 15.9724 12.58 16.0824 12.6 16.1724C13.37 16.0724 14.63 15.3724 16.38 14.0724Z" fill="#4674E1"/>
<path d="M29.7298 22.4426L31.3598 24.3226C29.2998 26.1026 27.5198 26.9926 26.0198 26.9926C25.3798 26.9926 24.8298 26.8126 24.3898 26.4526C23.7798 25.9426 23.4798 25.1526 23.4998 24.0826L23.5698 20.8426C23.4898 20.8426 23.3798 20.8426 23.2498 20.8426C22.8698 20.8426 22.4798 20.8226 22.0898 20.7726C21.7398 21.7126 21.2798 22.5826 20.7098 23.3926C20.4798 23.7226 20.2198 24.0526 19.9298 24.3826C19.6398 24.7126 19.2698 25.0926 18.8198 25.5326C18.3698 25.9726 17.8698 26.3226 17.3198 26.5926C16.7798 26.8626 16.2598 27.0026 15.7598 27.0026C15.4298 27.0026 15.1098 26.9326 14.7998 26.8026C14.3598 26.6226 13.9798 26.3226 13.6898 25.9126C13.3898 25.5026 13.1898 25.0426 13.0698 24.5326C12.9598 24.0226 12.8798 23.5726 12.8498 23.1826C12.8198 22.7926 12.7998 22.4126 12.7998 22.0326L15.2998 22.0826C15.2798 22.6626 15.3298 23.1826 15.4398 23.6526C15.5498 24.1226 15.6598 24.4026 15.7698 24.5026C15.9998 24.5226 16.4198 24.2726 17.0298 23.7626C17.6398 23.2526 18.1898 22.6426 18.6898 21.9326C19.0998 21.3526 19.4398 20.7326 19.6998 20.0526C19.1398 19.7926 18.6398 19.4726 18.1898 19.0926C16.8198 17.9926 16.0698 16.6626 15.9398 15.1126C15.8198 13.7826 16.2098 12.5226 17.0898 11.3526C17.9698 10.1826 19.0498 9.3226 20.3098 8.7826C22.2198 7.9926 24.1698 8.0226 26.1398 8.8826C26.9798 9.2426 27.7498 9.74258 28.4398 10.3626C28.4898 10.4126 28.5398 10.4626 28.5898 10.5126L28.4398 10.6626L26.8598 12.3226C26.6998 12.1626 26.5198 12.0026 26.3398 11.8526C25.5798 11.2926 24.7598 10.9426 23.8698 10.7926C22.9598 10.6626 22.0998 10.7626 21.2798 11.0926C21.2098 11.1226 21.1398 11.1626 21.0598 11.2126C20.2898 11.5726 19.6398 12.1026 19.1198 12.7826C18.5998 13.4626 18.3698 14.1726 18.4398 14.8926C18.5098 15.7526 18.9498 16.5126 19.7698 17.1626C20.8398 18.0526 22.1298 18.4526 23.6498 18.3526L23.7998 13.0926H26.2998L25.9998 24.1626C25.9998 24.3126 26.0098 24.4226 26.0198 24.5126C26.1198 24.5126 26.2498 24.4926 26.3998 24.4626C26.5598 24.4326 26.7498 24.3626 26.9798 24.2626C27.2098 24.1626 27.4598 24.0426 27.7198 23.8926C27.9798 23.7426 28.2898 23.5426 28.6498 23.3026C29.0098 23.0326 29.3598 22.7526 29.7298 22.4426Z" fill="#4674E1"/>
</svg>
