<svg width="19" height="18" viewBox="0 0 19 18" fill="none" xmlns="http://www.w3.org/2000/svg">
<path d="M4.27234 7.79C5.71234 10.62 8.03234 12.93 10.8623 14.38L13.0623 12.18C13.3323 11.91 13.7323 11.82 14.0823 11.94C15.2023 12.31 16.4123 12.51 17.6523 12.51C18.2023 12.51 18.6523 12.96 18.6523 13.51V17C18.6523 17.55 18.2023 18 17.6523 18C8.26234 18 0.652344 10.39 0.652344 1C0.652344 0.45 1.10234 0 1.65234 0H5.15234C5.70234 0 6.15234 0.45 6.15234 1C6.15234 2.25 6.35234 3.45 6.72234 4.57C6.83234 4.92 6.75234 5.31 6.47234 5.59L4.27234 7.79Z" fill="#323232"/>
</svg>
